<?xml version="1.0" encoding="iso-8859-1"?>
<!-- Generator: Adobe Illustrator 19.0.0, SVG Export Plug-In . SVG Version: 6.00 Build 0)  -->
<svg version="1.1" id="Capa_1" xmlns="http://www.w3.org/2000/svg" xmlns:xlink="http://www.w3.org/1999/xlink" x="0px" y="0px"
	 viewBox="0 0 512 512" style="enable-background:new 0 0 512 512;" xml:space="preserve">
<g>
	<g>
		<g>
			<path d="M506.11,68.826l-51.486-51.252C443.291,6.241,428.224,0,412.197,0c-16.026,0-31.093,6.241-42.477,17.625l-50.913,51.284
				c-7.782,7.839-7.736,20.502,0.103,28.284c3.901,3.873,8.995,5.807,14.09,5.807c5.142,0,10.284-1.972,14.193-5.909l50.862-51.233
				c7.799-7.798,20.487-7.798,28.317,0.032l51.518,51.284c7.828,7.793,20.492,7.764,28.284-0.064
				C513.967,89.282,513.938,76.619,506.11,68.826z"/>
			<path d="M169,85.746c-93.187,0-169,76.244-169,169.961V492c0,11.045,8.954,20,20,20s20-8.955,20-20V364.146h186.308
				c11.046,0,20-8.954,20-20c0-11.046-8.954-20-20-20H40v-68.438c0-71.661,57.869-129.961,129-129.961s129,58.3,129,129.961V492
				c0,11.045,8.954,20,20,20c11.046,0,20-8.955,20-20V255.708C338,161.99,262.187,85.746,169,85.746z"/>
		</g>
	</g>
</g>
<g>
</g>
<g>
</g>
<g>
</g>
<g>
</g>
<g>
</g>
<g>
</g>
<g>
</g>
<g>
</g>
<g>
</g>
<g>
</g>
<g>
</g>
<g>
</g>
<g>
</g>
<g>
</g>
<g>
</g>
</svg>
