<?xml version="1.0" encoding="iso-8859-1"?>
<!-- Generator: Adobe Illustrator 19.0.0, SVG Export Plug-In . SVG Version: 6.00 Build 0)  -->
<svg version="1.1" id="Capa_1" xmlns="http://www.w3.org/2000/svg" xmlns:xlink="http://www.w3.org/1999/xlink" x="0px" y="0px"
	 viewBox="0 0 512 512" style="enable-background:new 0 0 512 512;" xml:space="preserve">
<g>
	<g>
		<g>
			<path d="M506.174,61.89c-7.792-7.828-20.456-7.857-28.284-0.064l-51.55,51.316c-7.799,7.798-20.487,7.797-28.233,0.051
				l-50.913-51.284c-7.782-7.838-20.445-7.884-28.284-0.103c-7.839,7.782-7.885,20.445-0.103,28.284l50.964,51.335
				c11.701,11.701,27.072,17.55,42.438,17.55c15.355,0.001,30.706-5.84,42.383-17.517l51.518-51.284
				C513.938,82.381,513.967,69.718,506.174,61.89z"/>
			<path d="M140,104.923c-77.196,0-140,63.15-140,140.774V436c0,11.046,8.954,20,20,20s20-8.954,20-20v-99.077h130.154
				c11.046,0,20-8.954,20-20c0-11.046-8.954-20-20-20H40v-51.226c0-55.567,44.86-100.774,100-100.774s100,45.207,100,100.774V436
				c0,11.046,8.954,20,20,20c11.046,0,20-8.954,20-20V245.697C280,168.074,217.196,104.923,140,104.923z"/>
		</g>
	</g>
</g>
<g>
</g>
<g>
</g>
<g>
</g>
<g>
</g>
<g>
</g>
<g>
</g>
<g>
</g>
<g>
</g>
<g>
</g>
<g>
</g>
<g>
</g>
<g>
</g>
<g>
</g>
<g>
</g>
<g>
</g>
</svg>
